<svg id="svg8" xmlns="http://www.w3.org/2000/svg" xmlns:xlink="http://www.w3.org/1999/xlink" viewBox="0 0 563.21 537.86"><defs><style>.cls-1{fill:url(#Namnlös_övertoning);}.cls-2{fill:url(#Namnlös_övertoning_2);}.cls-3{fill:#faeca4;}.cls-4{fill:url(#Namnlös_övertoning_3);}.cls-5{fill:url(#Namnlös_övertoning_3-2);}.cls-6{fill:url(#Namnlös_övertoning_3-3);}.cls-7{fill:url(#Namnlös_övertoning_3-4);}.cls-8{fill:url(#Namnlös_övertoning_3-5);}</style><radialGradient id="Namnlös_övertoning" cx="200.86" cy="281.54" r="94.61" gradientTransform="matrix(2.98, 0, 0, -2.84, -316.22, 1069.17)" gradientUnits="userSpaceOnUse"><stop offset="0" stop-color="#ffe97c"/><stop offset="0.65" stop-color="#f7d73a"/><stop offset="0.8" stop-color="#ebc533"/><stop offset="1" stop-color="#d6831b"/></radialGradient><linearGradient id="Namnlös_övertoning_2" x1="240.05" y1="251.58" x2="240.05" y2="215.71" gradientTransform="matrix(5.99, 0, 0, -5.99, -1151.91, 1538.69)" gradientUnits="userSpaceOnUse"><stop offset="0" stop-color="#fff"/><stop offset="0.23" stop-color="#fff" stop-opacity="0.65"/><stop offset="0.78" stop-color="#fff" stop-opacity="0.08"/><stop offset="1" stop-color="#fff" stop-opacity="0"/></linearGradient><linearGradient id="Namnlös_övertoning_3" x1="-1234.55" y1="-143.33" x2="-1234.55" y2="-101.1" gradientTransform="matrix(0.75, 0, 0, -0.75, 1207.53, 276.83)" gradientUnits="userSpaceOnUse"><stop offset="0" stop-color="#814008"/><stop offset="1" stop-color="#4c2e03"/></linearGradient><linearGradient id="Namnlös_övertoning_3-2" x1="-1892.52" y1="-191.47" x2="-1892.52" y2="-149.25" gradientTransform="matrix(0.46, -0.46, -0.46, -0.46, 962.57, -717.63)" xlink:href="#Namnlös_övertoning_3"/><linearGradient id="Namnlös_övertoning_3-3" x1="-1688.29" y1="-242.61" x2="-1688.29" y2="-200.39" gradientTransform="matrix(-0.46, -0.46, -0.46, 0.46, -716.35, -443.86)" xlink:href="#Namnlös_övertoning_3"/><linearGradient id="Namnlös_övertoning_3-4" x1="-1655.36" y1="-448.8" x2="-1655.36" y2="-406.57" gradientTransform="matrix(0.46, -0.46, -0.46, -0.46, 962.57, -717.63)" xlink:href="#Namnlös_övertoning_3"/><linearGradient id="Namnlös_övertoning_3-5" x1="-1945.61" y1="-479.76" x2="-1945.61" y2="-437.54" gradientTransform="matrix(-0.46, -0.46, -0.46, 0.46, -716.35, -443.86)" xlink:href="#Namnlös_övertoning_3"/></defs><g id="layer2"><g id="g918"><ellipse id="path867" class="cls-1" cx="281.6" cy="268.93" rx="281.6" ry="268.93"/><path id="circle1347" class="cls-2" d="M501.62,185.56c9.5,128.87-62.27,25.25-200.18,25.25S57,313.39,71.87,184c5.51-48.05,76.55-153.5,214.46-153.5S498,136.62,501.62,185.56Z"/></g></g><g id="layer4"><g id="g1071"><path id="path1161" class="cls-3" d="M163.28,369.27v3.56c0,15.54,15.39,15,15.39,15l106.63.07h99.26s14.63-.44,14.63-15.13L399,366.6Z"/><path id="path1052" class="cls-4" d="M384.56,353.79H285.3l-106.63-.08s-15.39,0-15.39,15.55,15.39,15,15.39,15l106.63.07h99.26s15.39.56,15.39-15-15.39-15.54-15.39-15.54Z"/></g></g><path id="path1145" class="cls-5" d="M194,189l-31.21,31.22-41.32,41.22s-9.39,9.4.09,18.89,18.55-.26,18.55-.26l41.31-41.22,55.38-55.38h0l-24.16,24.16s9.74-9.05.25-18.54S194,189,194,189Z"/><path id="path1145-2" data-name="path1145" class="cls-6" d="M120.21,207.82,151.42,239l41.23,41.32s9.4,9.4,18.88-.09-.25-18.55-.25-18.55L170.06,220.4,114.68,165h0l24.16,24.16s-9.05-9.74-18.54-.25-.09,18.89-.09,18.89Z"/><path id="path1145-3" data-name="path1145" class="cls-7" d="M420.37,198.25l-31.22,31.22-41.31,41.22s-9.4,9.4.09,18.89,18.55-.25,18.55-.25l41.31-41.22,55.38-55.38h0L439,216.89s9.74-9.06.25-18.54-18.89-.1-18.89-.1Z"/><path id="path1145-4" data-name="path1145" class="cls-8" d="M346.6,217.06l31.22,31.21L419,289.58s9.4,9.4,18.89-.09-.25-18.54-.25-18.54l-41.22-41.31-55.38-55.38h0l24.16,24.16s-9.06-9.74-18.54-.25-.1,18.88-.1,18.88Z"/></svg>